<?xml version="1.0" encoding="utf-8"?>
<!-- Generator: Adobe Illustrator 17.0.0, SVG Export Plug-In . SVG Version: 6.00 Build 0)  -->
<!DOCTYPE svg PUBLIC "-//W3C//DTD SVG 1.1//EN" "http://www.w3.org/Graphics/SVG/1.1/DTD/svg11.dtd">
<svg version="1.1" id="Layer_1" xmlns="http://www.w3.org/2000/svg" xmlns:xlink="http://www.w3.org/1999/xlink" x="0px" y="0px"
	 width="80px" height="80px" viewBox="0 0 80 80" enable-background="new 0 0 80 80" xml:space="preserve">
<g>
	<g>
		<g>
			<g>
				<polygon fill="none" stroke="#232829" stroke-width="2" stroke-linejoin="round" stroke-miterlimit="10" points="40,42 26,34 
					26,17 40,25 				"/>
				<polyline fill="none" stroke="#232829" stroke-width="2" stroke-linejoin="round" stroke-miterlimit="10" points="40,25 54,17 
					54,34 40,42 				"/>
				<polyline fill="none" stroke="#232829" stroke-width="2" stroke-linejoin="round" stroke-miterlimit="10" points="26,17 40,9 
					54,17 				"/>
			</g>
			<g>
				<polygon fill="none" stroke="#232829" stroke-width="2" stroke-linejoin="round" stroke-miterlimit="10" points="24,71 10,63 
					10,46 24,54 				"/>
				<polyline fill="none" stroke="#232829" stroke-width="2" stroke-linejoin="round" stroke-miterlimit="10" points="24,54 38,46 
					38,63 24,71 				"/>
				<polyline fill="none" stroke="#232829" stroke-width="2" stroke-linejoin="round" stroke-miterlimit="10" points="10,46 24,38 
					38,46 				"/>
			</g>
			<g>
				<polygon fill="none" stroke="#232829" stroke-width="2" stroke-linejoin="round" stroke-miterlimit="10" points="56,71 42,63 
					42,46 56,54 				"/>
				<polyline fill="none" stroke="#232829" stroke-width="2" stroke-linejoin="round" stroke-miterlimit="10" points="56,54 70,46 
					70,63 56,71 				"/>
				<polyline fill="none" stroke="#232829" stroke-width="2" stroke-linejoin="round" stroke-miterlimit="10" points="42,46 56,38 
					70,46 				"/>
			</g>
		</g>
		<circle fill="none" stroke="#232829" stroke-width="2" stroke-linejoin="round" stroke-miterlimit="10" cx="59" cy="33" r="1"/>
		<circle fill="none" stroke="#232829" stroke-width="2" stroke-linejoin="round" stroke-miterlimit="10" cx="21" cy="33" r="1"/>
		<circle fill="none" stroke="#232829" stroke-width="2" stroke-linejoin="round" stroke-miterlimit="10" cx="40" cy="68" r="1"/>
	</g>
</g>
</svg>
