<?xml version="1.0" encoding="utf-8"?>
<!-- Generator: Adobe Illustrator 17.0.0, SVG Export Plug-In . SVG Version: 6.00 Build 0)  -->
<!DOCTYPE svg PUBLIC "-//W3C//DTD SVG 1.1//EN" "http://www.w3.org/Graphics/SVG/1.1/DTD/svg11.dtd">
<svg version="1.1" id="Layer_1" xmlns="http://www.w3.org/2000/svg" xmlns:xlink="http://www.w3.org/1999/xlink" x="0px" y="0px"
	 width="80px" height="80px" viewBox="0 0 80 80" enable-background="new 0 0 80 80" xml:space="preserve">
<g>
	<circle fill="none" stroke="#232829" stroke-width="2" stroke-miterlimit="10" cx="40" cy="14" r="5"/>
	<circle fill="none" stroke="#232829" stroke-width="2" stroke-miterlimit="10" cx="59" cy="21" r="5"/>
	<circle fill="none" stroke="#232829" stroke-width="2" stroke-miterlimit="10" cx="66" cy="40" r="5"/>
	<circle fill="none" stroke="#232829" stroke-width="2" stroke-miterlimit="10" cx="59" cy="59" r="5"/>
	<circle fill="none" stroke="#232829" stroke-width="2" stroke-miterlimit="10" cx="21" cy="21" r="5"/>
	<circle fill="none" stroke="#232829" stroke-width="2" stroke-miterlimit="10" cx="14" cy="40" r="5"/>
	<circle fill="none" stroke="#232829" stroke-width="2" stroke-miterlimit="10" cx="21" cy="59" r="5"/>
	<circle fill="none" stroke="#232829" stroke-width="2" stroke-miterlimit="10" cx="40" cy="66" r="5"/>
	<path fill="none" stroke="#232829" stroke-width="2" stroke-linecap="round" stroke-linejoin="round" stroke-miterlimit="10" d="
		M40,14"/>
	
		<polygon fill="none" stroke="#232829" stroke-width="2" stroke-linecap="round" stroke-linejoin="round" stroke-miterlimit="10" points="
		59,59 14,40 59,21 40,66 21,21 66,40 21,59 40,14 	"/>
	
		<line fill="none" stroke="#232829" stroke-width="2" stroke-linejoin="round" stroke-miterlimit="10" x1="37" y1="36" x2="39" y2="36"/>
	
		<line fill="none" stroke="#232829" stroke-width="2" stroke-linejoin="round" stroke-miterlimit="10" x1="41" y1="36" x2="43" y2="36"/>
	
		<line fill="none" stroke="#232829" stroke-width="2" stroke-linejoin="round" stroke-miterlimit="10" x1="43" y1="40" x2="45" y2="40"/>
	
		<line fill="none" stroke="#232829" stroke-width="2" stroke-linejoin="round" stroke-miterlimit="10" x1="39" y1="40" x2="41" y2="40"/>
	
		<line fill="none" stroke="#232829" stroke-width="2" stroke-linejoin="round" stroke-miterlimit="10" x1="35" y1="40" x2="37" y2="40"/>
	
		<line fill="none" stroke="#232829" stroke-width="2" stroke-linejoin="round" stroke-miterlimit="10" x1="41" y1="44" x2="43" y2="44"/>
	
		<line fill="none" stroke="#232829" stroke-width="2" stroke-linejoin="round" stroke-miterlimit="10" x1="37" y1="44" x2="39" y2="44"/>
</g>
</svg>
