<?xml version="1.0" encoding="utf-8"?>
<!-- Generator: Adobe Illustrator 17.0.0, SVG Export Plug-In . SVG Version: 6.00 Build 0)  -->
<!DOCTYPE svg PUBLIC "-//W3C//DTD SVG 1.1//EN" "http://www.w3.org/Graphics/SVG/1.1/DTD/svg11.dtd">
<svg version="1.1" id="Layer_1" xmlns="http://www.w3.org/2000/svg" xmlns:xlink="http://www.w3.org/1999/xlink" x="0px" y="0px"
	 width="80px" height="80px" viewBox="0 0 80 80" enable-background="new 0 0 80 80" xml:space="preserve">
<g>
	<g>
		<g>
			<ellipse fill="none" stroke="#232829" stroke-width="2" stroke-miterlimit="10" cx="40" cy="37" rx="15" ry="4"/>
			<g>
				<path fill="none" stroke="#232829" stroke-width="2" stroke-miterlimit="10" d="M58,49h1c6.627,0,12-5.373,12-12
					c0-5.947-4-11-10-11c0-5-3-9-9-9h-1c-2.728-4.924-7.972-8-14-8c-8.836,0-16,7.164-16,16c-6.627,0-12,5.373-12,12
					c0,6.627,5.373,12,12,12h1"/>
				<path fill="none" stroke="#232829" stroke-width="2" stroke-miterlimit="10" d="M27,26c0-6.075,5-11,10-11"/>
			</g>
			<path fill="none" stroke="#232829" stroke-width="2" stroke-miterlimit="10" d="M55,41v6c0,2.209-6.716,4-15,4s-15-1.791-15-4v-6
				"/>
			<path fill="none" stroke="#232829" stroke-width="2" stroke-miterlimit="10" d="M55,51v6c0,2.209-6.716,4-15,4s-15-1.791-15-4v-6
				"/>
			<path fill="none" stroke="#232829" stroke-width="2" stroke-miterlimit="10" d="M55,61v6c0,2.21-6.716,4-15,4s-15-1.79-15-4v-6"
				/>
			<line fill="none" stroke="#232829" stroke-width="2" stroke-miterlimit="10" x1="39" y1="46" x2="41" y2="46"/>
			<line fill="none" stroke="#232829" stroke-width="2" stroke-miterlimit="10" x1="35" y1="46" x2="37" y2="46"/>
			<line fill="none" stroke="#232829" stroke-width="2" stroke-miterlimit="10" x1="43" y1="46" x2="45" y2="46"/>
			<line fill="none" stroke="#232829" stroke-width="2" stroke-miterlimit="10" x1="39" y1="56" x2="41" y2="56"/>
			<line fill="none" stroke="#232829" stroke-width="2" stroke-miterlimit="10" x1="35" y1="56" x2="37" y2="56"/>
			<line fill="none" stroke="#232829" stroke-width="2" stroke-miterlimit="10" x1="43" y1="56" x2="45" y2="56"/>
			<line fill="none" stroke="#232829" stroke-width="2" stroke-miterlimit="10" x1="39" y1="66" x2="41" y2="66"/>
			<line fill="none" stroke="#232829" stroke-width="2" stroke-miterlimit="10" x1="35" y1="66" x2="37" y2="66"/>
			<line fill="none" stroke="#232829" stroke-width="2" stroke-miterlimit="10" x1="43" y1="66" x2="45" y2="66"/>
		</g>
	</g>
</g>
</svg>
